<svg xmlns="http://www.w3.org/2000/svg" viewBox="0 0 23 23"><path d="M1 1h7v7h-7zM10 1h1v1h-1zM12 1h2v1h-1v1h-1zM15 1h7v7h-7zM2 2v5h5v-5zM16 2v5h5v-5zM3 3h3v3h-3zM9 3h3v1h-2v5h-1zM13 3h1v7h1v-1h5v1h-2v1h-2v1h-1v-1h-2v-2h-1v-1h1v-2h-1v-1h1zM17 3h3v3h-3zM11 7h1v1h-1zM1 9h1v1h-1zM3 9h5v1h-1v1h-1v1h1v1h1v-1h-1v-1h1v-1h1v1h1v1h-1v1h2v1h-1v1h-1v-1h-4v-1h-1v-1h-2v-1h2v-1h-1zM11 9h1v2h1v1h-2zM21 10h1v1h-1zM18 11h3v1h-1v1h-2zM1 12h1v1h-1zM2 13h2v1h-2zM12 13h1v1h-1zM15 13h3v1h1v1h-3v1h-1v-1h-1v1h1v1h-2v1h-1v-1h-2v1h1v3h1v-2h4v1h-1v1h-1v-1h-1v2h-4v-1h1v-1h-1v-4h1v-1h1v-1h1v2h1v-2h2zM20 13h2v2h-1v-1h-1zM1 15h7v7h-7zM20 15h1v1h-1zM2 16v5h5v-5zM16 16h1v1h-1zM18 16h2v1h-2zM3 17h3v3h-3zM15 17h1v1h-1zM20 17h2v1h-2zM16 18h2v1h-2zM18 19h1v1h1v1h-2zM15 21h1v1h-1zM20 21h1v1h-1z"/></svg>